<svg width="37" height="108" viewBox="0 0 37 108" fill="none" xmlns="http://www.w3.org/2000/svg">
<path d="M9.5 0V107.5L23 66.5H0" stroke="#DE879E"/>
<path d="M18.0059 3.91797L18.6348 2.87891C19.0312 2.22721 19.4209 1.76237 19.8037 1.48437C20.1911 1.21094 20.6354 1.07422 21.1367 1.07422C21.8887 1.07422 22.4993 1.33398 22.9687 1.85352C23.4382 2.3776 23.6729 3.05664 23.6729 3.89062C23.6729 4.68815 23.4495 5.4196 23.0029 6.08496L21.4512 6.08496C22.112 5.39681 22.4424 4.65625 22.4424 3.86328C22.4424 3.41667 22.3376 3.0498 22.1279 2.76269C21.9229 2.47559 21.6585 2.33203 21.335 2.33203C21.0479 2.33203 20.779 2.43685 20.5283 2.64648C20.2777 2.85612 20.0156 3.19564 19.7422 3.66504L19.127 4.71094C18.4342 5.8776 17.5501 6.46094 16.4746 6.46094C15.709 6.46094 15.0869 6.20345 14.6084 5.68848C14.1299 5.17806 13.8906 4.51269 13.8906 3.69238C13.8906 2.74902 14.18 1.88997 14.7588 1.11523L16.4951 1.11523C15.5609 1.85351 15.0937 2.70801 15.0937 3.67871C15.0937 4.1071 15.2122 4.46256 15.4492 4.74512C15.6908 5.03223 15.9915 5.17578 16.3516 5.17578C16.9349 5.17578 17.4863 4.75651 18.0059 3.91797ZM16.2148 16.1953L14.7109 16.1953C14.1641 15.1927 13.8906 14.0352 13.8906 12.7227C13.8906 11.6562 14.1048 10.7516 14.5332 10.0088C14.9616 9.26595 15.5518 8.67806 16.3037 8.24512C17.0557 7.81217 17.8691 7.5957 18.7441 7.5957C20.1341 7.5957 21.3031 8.09017 22.251 9.0791C23.1989 10.0726 23.6729 11.2962 23.6729 12.75C23.6729 13.7526 23.4108 14.8669 22.8867 16.0928L21.417 16.0928C22.055 14.9762 22.374 13.8848 22.374 12.8184C22.374 11.7246 22.0277 10.8154 21.335 10.0908C20.6468 9.37077 19.7832 9.01074 18.7441 9.01074C17.696 9.01074 16.8346 9.36621 16.1602 10.0771C15.4857 10.7881 15.1484 11.6973 15.1484 12.8047C15.1484 13.9622 15.5039 15.0924 16.2148 16.1953ZM14 17.918L23.5498 17.918L23.5498 20.3105C23.5498 21.2767 23.3105 22.0423 22.832 22.6074C22.3535 23.1771 21.7064 23.4619 20.8906 23.4619C20.3346 23.4619 19.8538 23.3229 19.4482 23.0449C19.0426 22.7669 18.7396 22.3682 18.5391 21.8486C18.3385 22.154 18.0651 22.4525 17.7187 22.7441C17.3724 23.0358 16.7686 23.446 15.9072 23.9746C15.3649 24.3073 14.957 24.5739 14.6836 24.7744L14 25.2803L14 23.6533L14.6289 23.2363C14.6517 23.2227 14.6904 23.1953 14.7451 23.1543L15.1211 22.8877L15.8184 22.4639L16.5635 22.0059C16.9554 21.7233 17.2676 21.4635 17.5 21.2266C17.7324 20.9941 17.8988 20.7822 17.999 20.5908C18.1038 20.404 18.1562 20.0872 18.1562 19.6406L18.1562 19.2852L14 19.2852L14 17.918ZM22.3877 19.6953L22.3877 19.2852L19.373 19.2852L19.373 19.8047C19.373 20.4974 19.4323 20.9714 19.5508 21.2266C19.6693 21.4863 19.847 21.6868 20.084 21.8281C20.3255 21.974 20.599 22.0469 20.9043 22.0469C21.2051 22.0469 21.4762 21.9671 21.7178 21.8076C21.9639 21.6481 22.137 21.4225 22.2373 21.1309C22.3376 20.8437 22.3877 20.3652 22.3877 19.6953ZM23.6865 31.0293C23.6865 32.5059 23.2194 33.734 22.2852 34.7139C21.3509 35.6982 20.1797 36.1904 18.7715 36.1904C17.3633 36.1904 16.1966 35.6937 15.2715 34.7002C14.3509 33.7113 13.8906 32.4626 13.8906 30.9541C13.8906 29.514 14.3509 28.3132 15.2715 27.3516C16.1966 26.3945 17.3542 25.916 18.7441 25.916C20.1706 25.916 21.3509 26.3991 22.2852 27.3652C23.2194 28.3314 23.6865 29.5527 23.6865 31.0293ZM22.3877 31.084C22.3877 29.9902 22.0459 29.0902 21.3623 28.3838C20.6787 27.682 19.806 27.3311 18.7441 27.3311C17.7142 27.3311 16.8574 27.6842 16.1738 28.3906C15.4902 29.097 15.1484 29.9811 15.1484 31.043C15.1484 32.1094 15.4971 32.998 16.1943 33.709C16.8916 34.4245 17.7598 34.7822 18.7988 34.7822C19.8105 34.7822 20.6605 34.4245 21.3486 33.709C22.0413 32.998 22.3877 32.123 22.3877 31.084ZM23.5498 37.8652L23.5498 39.2324L15.2441 39.2324L15.2441 43.5322L14 43.5322L14 37.8652L23.5498 37.8652ZM23.5498 44.7285L23.5498 46.0957L15.2441 46.0957L15.2441 50.3955L14 50.3955L14 44.7285L23.5498 44.7285Z" fill="#DE879E"/>
</svg>
