<svg width="27" height="27" viewBox="0 0 27 27" fill="none" xmlns="http://www.w3.org/2000/svg">
<path d="M1 14H27" stroke="#DE879E" stroke-width="2"/>
<path d="M1 20H27" stroke="#DE879E" stroke-width="2"/>
<path d="M1 26H27" stroke="#DE879E" stroke-width="2"/>
<path d="M3.12891 2.03906L4.20703 3.28125L5.28906 2.03906H7.84766V8H5.20703V5.01562L4.20703 6.16797L3.20703 5.01562V8H0.566406V2.03906H3.12891ZM13.5492 2.03906V3.53516H11.2367V4.27344H12.8461V5.76953H11.2367V6.50391H13.5492V8H8.6V2.03906H13.5492ZM15.8445 2.03906L17.2195 4.03125H17.2352V2.03906H19.8758V8.04688H17.8758L16.6102 6.19141H16.5945V8H13.9578V2.03906H15.8445ZM26.4758 2.03906V4.79688C26.4758 5.14844 26.4471 5.47005 26.3898 5.76172C26.3326 6.05339 26.2453 6.31771 26.1281 6.55469C26.0135 6.78906 25.8677 7 25.6906 7.1875C25.5161 7.3724 25.3091 7.53516 25.0695 7.67578C24.593 7.95703 24.0721 8.09766 23.507 8.09766C22.9784 8.09766 22.4745 7.96745 21.9953 7.70703C21.5187 7.44661 21.1568 7.08724 20.9094 6.62891C20.6672 6.17318 20.5461 5.52604 20.5461 4.6875V2.03906H23.1867V4.84766C23.1867 5.08724 23.2089 5.25391 23.2531 5.34766C23.3 5.4362 23.382 5.48047 23.4992 5.48047C23.5695 5.48047 23.6255 5.46484 23.6672 5.43359C23.7115 5.40234 23.7453 5.35286 23.7687 5.28516C23.7948 5.21745 23.8117 5.13021 23.8195 5.02344C23.8299 4.91667 23.8352 4.78776 23.8352 4.63672V2.03906H26.4758Z" fill="#DE879E"/>
</svg>
