<svg width="24" height="24" viewBox="0 0 24 24" fill="none" xmlns="http://www.w3.org/2000/svg">
<path fill-rule="evenodd" clip-rule="evenodd" d="M2.82812 0.765231C3.09057 0.503173 3.40572 0.299883 3.75268 0.168835C4.09965 0.0377868 4.4705 -0.0180279 4.84066 0.00508966C5.21083 0.0282073 5.57185 0.129729 5.89982 0.302928C6.22778 0.476127 6.51519 0.717047 6.743 1.00972L9.43541 4.46862C9.9289 5.1031 10.1029 5.92957 9.9079 6.70955L9.08742 9.99444C9.0453 10.1646 9.04774 10.3427 9.0945 10.5117C9.14127 10.6806 9.23079 10.8346 9.35441 10.9589L13.0398 14.6443C13.1642 14.7682 13.3185 14.8578 13.4877 14.9046C13.657 14.9514 13.8354 14.9537 14.0058 14.9113L17.2892 14.0908C17.6741 13.9951 18.0757 13.9879 18.4639 14.0698C18.852 14.1516 19.2165 14.3203 19.5301 14.5633L22.989 17.2542C24.2324 18.2217 24.3464 20.0591 23.2335 21.1706L21.6825 22.7215C20.5726 23.8315 18.9136 24.319 17.3672 23.7745C13.4083 22.3834 9.81421 20.1173 6.85249 17.1447C3.88014 14.1834 1.61398 10.5899 0.222699 6.63155C-0.320284 5.0866 0.167201 3.42615 1.27717 2.31618L2.82812 0.765231Z" fill="#443333"/>
</svg>
