<svg width="127" height="45" viewBox="0 0 127 45" fill="none" xmlns="http://www.w3.org/2000/svg">
<path d="M46.144 15.838C46.144 15.64 46.27 15.442 46.486 15.388C47.53 15.028 48.574 14.56 48.898 14.308C48.574 14.092 47.404 14.002 46.684 13.93C45.784 13.858 44.866 13.786 44.146 13.57C43.228 13.282 42.724 12.544 42.706 12.508C42.652 12.436 42.634 12.346 42.634 12.256C42.634 12.094 42.706 11.95 42.85 11.86C43.066 11.716 43.354 11.77 43.498 11.986C43.516 12.004 43.84 12.472 44.434 12.652C45.046 12.85 45.928 12.922 46.756 12.994C48.304 13.12 49.258 13.228 49.69 13.732C49.852 13.93 49.924 14.164 49.906 14.398C49.888 14.614 49.816 15.298 46.774 16.288C46.522 16.378 46.252 16.234 46.18 15.982C46.162 15.928 46.144 15.892 46.144 15.838ZM50.986 23.38C51.04 23.632 50.878 23.884 50.608 23.938C45.73 24.946 42.904 23.722 41.878 22.228C41.32 21.4 41.284 20.428 41.788 19.618C41.932 19.402 42.22 19.348 42.454 19.474C42.67 19.618 42.742 19.924 42.598 20.14C42.292 20.626 42.31 21.166 42.67 21.706C43.48 22.876 45.982 23.92 50.428 23.002C50.68 22.948 50.932 23.11 50.986 23.38ZM58.834 22.534C58.384 20.95 59.878 19.024 62.488 17.818C62.218 16.828 61.948 15.388 62.092 13.714C62.128 13.12 61.624 12.382 61.426 12.148C61.246 11.95 61.264 11.662 61.462 11.482C61.66 11.32 61.966 11.338 62.128 11.536C62.236 11.644 63.118 12.688 63.046 13.786C62.812 16.648 63.838 18.844 63.856 18.862C63.964 19.096 63.874 19.384 63.64 19.492C63.406 19.618 63.118 19.51 62.992 19.276C62.992 19.24 62.902 19.06 62.776 18.736C60.742 19.708 59.446 21.202 59.752 22.282C60.058 23.398 62.218 24.352 67.366 23.668C67.618 23.632 67.87 23.812 67.906 24.082C67.942 24.334 67.744 24.568 67.492 24.604C62.542 25.27 59.374 24.514 58.834 22.534ZM66.79 16.162C67.384 16.018 67.762 15.802 67.834 15.586C67.906 15.352 67.672 14.992 67.546 14.866C67.366 14.668 67.384 14.38 67.564 14.2C67.762 14.02 68.05 14.02 68.23 14.218C68.32 14.29 68.986 15.028 68.734 15.856C68.572 16.45 67.978 16.864 67.006 17.08C66.376 17.242 65.458 17.512 64.792 17.764C64.54 17.854 64.27 17.728 64.18 17.494C64.09 17.242 64.216 16.972 64.45 16.882C65.17 16.612 66.124 16.324 66.79 16.162ZM83.368 12.616C84.574 12.616 85.312 14.416 85.582 15.946C86.212 19.438 85.042 23.596 81.064 25.054C80.812 25.144 80.542 25.018 80.452 24.766C80.362 24.514 80.488 24.244 80.74 24.154C84.43 22.804 85.15 18.988 84.646 16.126C84.358 14.47 83.71 13.57 83.368 13.57C82.414 13.57 81.64 16.306 81.172 17.944C80.65 19.744 80.398 20.662 79.714 20.662C79.462 20.662 78.994 20.554 78.634 19.888C77.932 18.592 78.094 15.946 79.552 13.768C80.146 12.868 79.624 11.896 79.606 11.842C79.48 11.626 79.57 11.338 79.786 11.212C80.02 11.068 80.308 11.158 80.434 11.392C80.452 11.428 80.794 12.022 80.794 12.814C80.794 13.264 80.686 13.786 80.344 14.29C79.516 15.532 79.192 16.918 79.192 17.98C79.192 18.61 79.3 19.114 79.48 19.438C79.516 19.546 79.57 19.6 79.606 19.636C79.804 19.294 80.056 18.376 80.254 17.692C80.938 15.316 81.694 12.616 83.368 12.616ZM93.61 13.3C93.61 13.048 93.826 12.832 94.096 12.832C94.096 12.832 96.706 12.832 99.46 12.832V10.438C99.46 10.15 99.694 9.916 99.982 9.916C100.27 9.916 100.504 10.15 100.504 10.438V12.832C102.952 12.832 105.256 12.832 105.616 12.832C105.67 12.616 105.85 12.472 106.084 12.472C106.336 12.472 106.552 12.688 106.552 12.94V13.3C106.552 13.57 106.336 13.786 106.084 13.786H94.096C93.826 13.786 93.61 13.57 93.61 13.3ZM107.776 25.306C108.028 25.36 108.19 25.612 108.118 25.882C108.064 26.134 107.812 26.296 107.56 26.224C107.326 26.17 103.204 25.144 99.55 20.716C96.724 23.29 93.862 24.262 93.682 24.316C93.43 24.388 93.16 24.262 93.088 24.01C92.998 23.758 93.142 23.488 93.394 23.416C93.43 23.398 96.22 22.444 98.956 19.942C98.02 18.682 97.12 17.188 96.346 15.406C96.238 15.154 96.364 14.884 96.598 14.776C96.85 14.668 97.12 14.776 97.228 15.028C97.948 16.684 98.776 18.088 99.658 19.276C100.9 17.998 102.088 16.396 102.934 14.38C103.042 14.146 103.33 14.038 103.564 14.128C103.798 14.236 103.924 14.524 103.816 14.758C102.88 16.954 101.602 18.682 100.252 20.05C103.762 24.28 107.722 25.288 107.776 25.306ZM112.564 13.408C112.294 13.408 112.078 13.192 112.078 12.922C112.078 12.67 112.294 12.454 112.564 12.454C112.564 12.454 115.21 12.454 117.91 12.454V10.744C117.91 10.456 118.144 10.204 118.432 10.204C118.738 10.204 118.972 10.456 118.972 10.744V12.454C121.24 12.454 123.346 12.454 123.67 12.454C123.76 12.292 123.922 12.184 124.102 12.184C124.372 12.184 124.57 12.4 124.57 12.652V12.922C124.57 13.192 124.372 13.408 124.102 13.408H112.564ZM113.446 13.696C113.716 13.732 113.896 13.966 113.86 14.218C113.194 19.87 111.034 23.146 110.944 23.29C110.8 23.506 110.512 23.56 110.296 23.416C110.062 23.272 110.008 22.984 110.152 22.768C110.17 22.732 112.276 19.51 112.924 14.11C112.96 13.858 113.194 13.66 113.446 13.696ZM124.246 23.002C124.516 23.002 124.732 23.218 124.732 23.47C124.732 23.74 124.516 23.956 124.246 23.956H120.304V25.63C120.304 25.918 120.07 26.152 119.764 26.152C119.476 26.152 119.242 25.918 119.242 25.63V23.956H115.282C115.03 23.956 114.814 23.74 114.814 23.47C114.814 23.218 115.03 23.002 115.282 23.002H119.242V21.94H116.614C116.362 21.94 116.146 21.724 116.146 21.454V17.422C116.146 17.17 116.362 16.954 116.614 16.954C116.884 16.954 117.1 17.17 117.1 17.422C117.1 17.422 117.1 18.106 117.1 18.88H119.242V17.908C118.522 17.908 117.964 17.908 117.964 17.908C117.712 17.908 117.496 17.692 117.496 17.422C117.496 17.17 117.712 16.954 117.964 16.954H119.242V15.946H116.2C115.93 15.946 115.714 15.73 115.714 15.46C115.714 15.208 115.93 14.992 116.2 14.992H119.242V14.434C119.242 14.146 119.476 13.912 119.764 13.912C120.07 13.912 120.304 14.146 120.304 14.434V14.992H123.346C123.616 14.992 123.832 15.208 123.832 15.46C123.832 15.73 123.616 15.946 123.346 15.946H120.304V16.954H122.806C123.058 16.954 123.274 17.17 123.274 17.422V21.454C123.274 21.724 123.058 21.94 122.806 21.94H120.304V23.002H124.246ZM120.304 19.834V20.986C121.204 20.986 122.014 20.986 122.32 20.986C122.32 20.338 122.32 18.538 122.32 17.908C121.996 17.908 121.15 17.908 120.304 17.908V18.88H121.384C121.654 18.88 121.852 19.096 121.852 19.366C121.852 19.636 121.654 19.834 121.384 19.834H120.304ZM119.242 20.986V19.834H117.1C117.1 20.32 117.1 20.752 117.1 20.986C117.424 20.986 118.288 20.986 119.242 20.986Z" fill="#433333"/>
<path d="M32.4447 3.03486C32.4447 3.84909 33.6111 4.28977 33.6111 5.41628C33.6111 6.54278 33.3344 7.17024 33.1662 6.66828C32.9981 6.16631 32.6671 5.91533 32.6671 5.91533C32.6671 5.91533 32.3904 6.85505 31.7774 7.17024C31.8886 7.67221 31.6662 9.49038 31.2783 10.2404C30.8903 10.9934 31.2783 14.8778 29.9464 16.0685C29.5015 18.9519 28.78 21.4588 26.1135 23.7176C25.6144 24.847 25.2808 25.7226 25.2808 26.099C25.2808 26.4755 25.7256 26.9775 25.948 26.9133C26.1704 26.852 26.6153 26.2858 26.892 26.35C27.1687 26.4113 27.2256 26.7907 27.2256 26.7907C27.2256 26.7907 28.0584 26.601 28.392 26.9775C28.7257 27.3539 28.7257 27.7304 28.6144 27.9172C28.5032 28.104 28.5575 28.7956 28.392 28.4805C28.2239 28.1682 28.0584 27.9172 28.0584 27.9172C28.0584 27.9172 26.7808 27.8559 26.3929 27.8559C26.0049 27.8559 24.6161 28.2324 24.6161 28.2324C24.6161 28.2324 24.1713 28.4834 24.0057 28.4834C23.8402 28.4834 23.9514 29.0466 23.7833 28.9211C23.6178 28.7956 23.5066 28.4192 23.5066 28.4192C23.5066 28.4192 23.3411 27.8559 23.729 27.6662C24.1169 27.4765 24.3394 27.602 24.3394 27.0388C24.3394 26.4755 23.1187 26.4113 23.1187 25.5358C22.1178 26.7265 17.1754 28.9824 16.2315 29.1079C15.7866 28.9211 15.9547 28.6059 15.9547 28.6059C15.9547 28.6059 13.6219 31.9913 12.5642 33.3688C11.509 34.7492 11.5633 33.6811 11.5633 33.6811C11.5633 33.6811 8.89685 37.7551 7.89856 38.3213C7.39941 38.4468 7.50803 38.0703 7.50803 38.0703C7.50803 38.0703 4.8985 41.6425 4.00883 41.768V41.517C4.00883 41.517 1.45361 43.7116 0.620842 44.0239C-0.211932 44.3391 -0.323142 44.0881 1.01136 42.769C2.34328 41.4528 6.39853 37.9419 7.95287 35.3737C9.50721 32.8026 9.61842 32.3006 9.61842 32.3006C9.61842 32.3006 8.83995 33.2404 8.78564 32.8026C8.73133 32.3649 10.8417 28.7927 11.2297 27.4736C11.6176 26.1574 14.5064 18.0092 15.6159 16.2523C16.728 14.4984 17.672 10.2346 20.5609 10.611C21.8385 9.60711 22.56 8.10413 22.8937 6.97471C23.2273 5.84528 23.6152 1.83539 26.6153 0.831461C29.6127 -0.163716 32.4447 0.399537 32.4447 3.03486Z" fill="#433333"/>
</svg>
