<svg width="43" height="75" viewBox="0 0 43 75" fill="none" xmlns="http://www.w3.org/2000/svg">
<path d="M19.059 0.328557C15.3033 0.948557 11.0848 5.13356 10.667 8.34356C10.2491 11.5486 10.08 10.7886 10.4133 12.8986C10.7466 15.0086 9.99542 16.5236 9.32386 17.4536C8.6523 18.3836 6.80674 23.1886 6.63761 24.7936C6.46848 26.3936 4.03593 27.9986 2.35951 32.7236C0.683092 37.4486 0.0911218 45.3786 2.6928 49.6786C5.29449 53.9836 5.96605 53.3036 5.96605 53.3036C5.96605 53.3036 9.48802 59.6286 11.0003 60.8136C12.5125 61.9936 12.2588 62.5836 12.2588 62.5836C12.2588 62.5836 10.1596 63.5986 10.7466 65.4536C10.4133 67.3936 9.65715 70.0086 10.4133 73.1286L10.8311 73.8886C10.8311 73.8886 11.3336 75.4086 11.4181 74.9036C11.5027 74.3936 11.9206 74.1436 12.0051 73.8086C12.0897 73.4686 11.836 70.6036 12.0897 69.6736C12.3434 68.7436 12.5921 67.1436 12.7613 67.4786C12.9304 67.8186 12.9304 71.6986 13.2687 72.1186C13.602 72.5386 14.1094 73.4686 14.1094 73.4686L14.3581 72.2036C14.3581 72.2036 14.9451 71.5285 14.8605 71.0236C14.7759 70.5186 14.189 65.0336 14.189 64.3586C14.189 63.6836 14.6914 62.7586 14.9451 62.9236C15.1988 63.0936 16.7061 64.6936 19.8947 65.2836C23.0834 65.8736 28.6251 64.3586 29.5503 63.3436C30.8934 64.1886 32.2366 65.3686 32.4057 65.7886C32.5748 66.2086 32.5748 69.6686 33.0773 70.1736C33.5797 70.6786 33.6643 71.1036 33.7488 71.4386C33.8334 71.7736 34.3358 71.3536 34.3358 70.8486C34.3358 70.3436 34.3358 68.1486 34.2513 67.6436C34.1667 67.1386 34.4204 66.9686 34.6691 67.6436C34.9228 68.3186 35.5944 69.9236 35.5944 70.8486C35.5944 71.7736 35.2611 72.6186 35.5098 73.0436C35.7635 73.4636 35.5098 74.7286 35.8481 74.6486C36.1814 74.5636 36.5196 73.6336 36.5196 73.6336C36.5196 73.6336 37.2758 72.8736 37.1066 71.3586C36.9425 69.8386 36.4351 66.1286 36.2659 65.7886C36.0968 65.4536 37.0221 66.1236 36.7733 65.2786C36.5196 64.4386 35.5994 62.0736 34.7587 61.4836C33.918 60.8936 39.2905 54.3986 39.0417 50.2636C41.3947 48.3236 43.7427 38.8736 42.6483 34.4036C41.5588 29.9336 37.614 26.5586 36.7733 23.8586C35.9326 21.1586 34.684 13.1086 34.3358 11.3736C33.918 9.26356 33.331 -2.04144 19.059 0.323557V0.328557Z" fill="#F1D2DA"/>
</svg>
