<svg width="120" height="73" viewBox="0 0 120 73" fill="none" xmlns="http://www.w3.org/2000/svg">
<path d="M99.797 10.6398C100.117 9.37985 101.197 3.35985 104.397 1.30985C107.587 -0.730151 112.577 -0.220151 114.617 1.68985C116.657 3.60985 117.807 5.90985 117.807 6.66985C118.187 7.81985 117.937 8.71985 117.807 9.09985C117.677 9.47985 119.217 11.6498 119.337 16.5098C119.467 21.3598 120.997 25.3198 118.827 33.2398C116.657 41.1599 106.687 49.5898 102.087 51.2498C97.487 52.9098 98.607 54.8398 98.817 55.8598C98.997 56.7598 99.287 57.9498 101.467 58.1698C102.147 58.2398 104.297 57.8298 105.807 59.1898C107.097 60.3398 108.117 62.1798 106.687 64.4198C105.057 66.9798 103.497 65.4398 103.497 65.4398C102.857 65.9499 102.477 65.0598 102.477 65.0598C102.477 65.0598 104.067 64.9998 104.137 64.5499C104.247 63.8799 106.307 63.3998 106.047 61.9898C105.787 60.5898 104.387 59.3098 102.857 59.4398C101.327 59.5698 99.767 60.3498 99.637 61.3698C99.507 62.3898 99.4969 63.6798 100.437 63.9098C100.887 64.0198 101.327 64.1599 101.717 64.2898C102.097 64.4198 101.717 65.0599 101.207 65.1898C100.697 65.3198 99.857 65.4698 98.967 64.8398C98.077 64.1998 97.637 62.3898 98.017 60.8498C98.3969 59.3198 98.3969 57.5298 97.377 56.7598C96.357 55.9898 95.207 57.0198 94.317 56.3798C93.417 55.7398 86.137 58.4198 83.837 58.4198C81.5369 58.4198 80.767 57.9098 80.767 57.9098C80.767 57.9098 76.0369 59.3198 74.767 59.3198C73.497 59.3198 74.637 58.2998 74.637 58.2998C74.637 58.2998 70.937 59.1898 69.147 59.3198C67.357 59.4498 62.627 58.9398 61.227 59.4498C59.817 59.9598 50.497 63.7899 48.967 64.0499C47.437 64.3099 49.737 62.2598 49.737 62.2598C49.737 62.2598 34.537 66.3498 31.087 67.8798C27.637 69.4098 17.547 72.2198 17.927 71.9698C18.307 71.7098 15.377 73.1199 13.837 72.6098C12.307 72.0998 24.187 68.0098 25.207 67.7598C26.227 67.4998 32.997 64.1798 32.997 64.1798C32.997 64.1798 20.987 67.3799 18.437 68.0098C15.887 68.6498 4.63695 71.3298 1.31695 71.3298C-2.00305 71.3298 1.69695 70.1798 4.25695 69.5398C6.80695 68.8998 43.857 57.3998 47.177 55.8698C50.497 54.3398 56.377 51.2698 56.377 51.2698C56.377 51.2698 49.737 51.2698 48.967 50.8898C48.197 50.5098 49.857 49.6098 49.857 49.6098C49.857 49.6098 45.517 50.6298 44.107 50.2498C42.707 49.8698 48.957 47.5698 52.917 46.0298C56.877 44.4998 72.337 37.3398 73.997 35.9398C75.657 34.5398 81.787 31.8498 82.807 30.8298C83.827 29.8098 92.767 19.7198 95.077 18.1798C97.377 16.6498 99.167 13.1999 99.807 10.6398H99.797Z" fill="#F1D2DA"/>
</svg>
