<svg width="46" height="74" viewBox="0 0 46 74" fill="none" xmlns="http://www.w3.org/2000/svg">
<path d="M9.68113 13.8839C9.55764 12.7639 8.93524 7.04537 11.1729 3.93693C13.4106 0.828484 21.0028 -1.52998 26.1055 1.20347C31.2082 3.93693 32.206 7.42036 33.0754 8.91043C33.9497 10.4005 37.3087 19.6025 38.3015 21.0926C39.2993 22.5826 40.0452 24.6994 41.043 25.1928C42.0359 25.6911 43.1572 26.4361 44.155 28.6712C45.1528 30.9113 47.3905 38.3666 44.7774 44.2085C42.1643 50.0504 41.1665 50.6721 41.1665 49.5521C41.1665 48.4321 38.183 54.2789 37.5606 55.2706C36.9382 56.2673 37.0617 58.1324 37.5606 59.2475C38.0595 60.3675 39.1758 61.1125 39.9267 60.9892C40.6726 60.8658 41.6704 60.1159 41.9174 61.1125C42.1643 62.1092 41.9174 62.8542 41.7939 63.4759C41.6704 64.0976 44.16 67.5761 44.7824 68.8195C45.4048 70.0629 45.9037 71.3062 45.7802 71.9279C45.6567 72.5496 45.6567 74.4147 45.2813 73.9164C44.9108 73.418 44.9108 72.673 44.5354 72.673C44.16 72.673 43.2906 72.5496 43.0436 71.5529C42.7966 70.5563 40.307 65.3361 40.1786 65.9577C40.0551 66.5794 40.6775 68.1929 40.4256 68.9428C40.1786 69.6879 40.4256 68.5679 40.1786 69.6879C39.9316 70.8079 39.4327 70.4329 39.3092 69.5645C39.1857 68.6961 38.3114 68.5679 38.4398 67.8228C38.5633 67.0778 38.6868 65.3361 38.1928 63.471C37.6939 61.6059 36.4492 61.7293 35.9502 61.7293C35.4513 61.7293 35.3278 60.6093 35.8268 60.4859C36.3257 60.3626 35.8268 58.8725 35.5798 57.9992C35.3328 57.1308 33.8361 54.8907 33.7126 55.389C33.5891 55.8874 32.0924 57.1308 30.2301 57.8758C28.3629 58.6208 24.5051 58.4975 24.5051 58.4975C24.5051 58.4975 19.2789 60.3626 17.1598 60.1109C15.0456 59.8642 11.6866 57.9992 10.8123 58.1225C9.94293 58.2459 8.32272 60.1109 8.57464 60.6093C8.82163 61.1076 9.94293 60.2343 9.81944 61.2309C9.69595 62.2276 8.57464 62.5977 7.82875 62.9727C7.08287 63.3476 6.08505 65.0844 6.08505 65.8344C6.08505 66.5844 6.33204 68.6961 5.83807 68.8146C5.33916 68.9379 5.58615 70.5563 5.09218 70.5563C4.59822 70.5563 4.59328 69.9346 4.46978 69.4362C4.34629 68.9428 4.09437 69.0613 4.09437 67.8228C4.09437 66.5844 5.21567 64.3443 4.71677 64.4677C4.21786 64.591 2.22718 66.4561 1.9802 67.5761C1.73321 68.6961 2.10369 69.5645 1.73321 69.6879C1.3578 69.8112 1.3578 71.3013 1.3578 71.3013C0.735402 71.3013 0.858893 70.5563 0.488418 69.3129C0.113004 68.0695 -0.25747 67.4478 0.241435 65.8295C0.740341 64.2111 2.4791 64.2111 3.22993 62.721C3.97582 61.2309 5.3441 60.7326 5.84301 60.481C6.34192 60.2343 7.7102 58.9909 7.7102 58.4926C7.7102 57.9942 6.71733 57.3725 6.46541 55.2608C5.71952 56.8742 4.96869 57.7475 4.8452 56.8742C4.72171 56.0058 3.6004 53.1441 3.35342 51.7773C3.1015 50.4106 1.11082 47.3022 2.10863 41.2086C3.1015 35.12 3.22993 30.6449 6.46541 27.9065C9.70089 25.173 10.3233 19.5778 10.1998 17.5894C10.0763 15.601 9.70583 13.8593 9.70583 13.8593L9.68113 13.8839Z" fill="#F1D2DA"/>
</svg>
