<svg width="115" height="67" viewBox="0 0 115 67" fill="none" xmlns="http://www.w3.org/2000/svg">
<path d="M113.479 17.6629C113.354 18.2287 115.127 18.6987 114.993 22.3816C114.945 23.6763 114.485 24.1559 114.159 24.1751C113.967 24.1751 113.891 23.7435 113.699 23.4749C113.517 23.1201 113.306 23.3311 113.191 23.0625C113.287 24.2518 113 28.9609 110.335 29.7569C110.038 32.03 108.553 36.8734 105.39 39.8465C103.512 46.5697 94.4172 54.3863 83.8467 54.5877C73.1707 54.7795 68.724 52.2091 67.6411 52.1132C66.5582 52.0173 65.3698 51.4227 66.4527 53.197C67.5357 54.9713 69.0211 56.8511 69.7111 57.2539C70.4011 57.6472 73.4678 58.3377 74.062 59.1337C74.6562 59.9202 74.4549 60.5148 74.3591 60.8121C74.2633 61.1095 74.3591 62.0973 74.062 61.7041C73.7649 61.3109 73.9662 60.5148 73.4678 60.2175C72.9791 59.9202 70.8036 58.9323 71.1966 59.4311C71.5895 59.9298 75.1449 63.0948 75.3462 63.9771C75.5474 64.8691 75.2504 66.2598 74.8574 66.3557C74.4645 66.4516 73.7649 67.3435 73.6691 66.8544C73.5732 66.3557 73.5732 66.1638 73.7649 65.8665C73.9662 65.5692 73.372 65.2719 73.0749 64.5813C72.7778 63.8908 71.1007 61.6178 70.6024 61.0231C70.104 60.4285 68.3311 59.2488 67.344 59.0474C66.3569 58.8556 63.386 60.1312 62.6002 60.0353C61.8048 59.9394 61.4119 59.9394 61.316 60.4285C61.2202 60.9272 61.6131 61.5219 61.5173 61.8096C61.4214 62.1069 60.4344 61.119 60.4344 60.4285C59.9456 59.6325 60.3385 59.0474 61.3256 58.5487C62.3127 58.05 66.3665 58.4528 66.5677 57.5608C66.769 56.6689 64.3923 53.0148 63.9036 52.612C63.4052 52.2187 61.1339 53.3025 60.2427 52.9093C59.3514 52.516 59.0543 48.6605 59.7443 48.1618C56.486 47.3753 54.3105 44.9009 55.3935 44.2104C52.1351 42.7238 50.2567 40.6522 51.2438 40.2589C49.2696 38.475 46.4042 35.7033 48.0813 36.0102L49.7584 36.3075C49.7584 36.3075 43.0404 34.6291 43.7304 33.7371C44.5163 33.4398 39.6766 32.452 40.0695 31.3586C39.9737 30.6681 29.9878 26.6111 29.2978 25.2301C29.0007 23.9449 29.499 24.3381 29.499 24.3381C29.499 24.3381 24.554 22.3624 24.7552 21.0772C25.1481 20.5785 18.8231 17.4135 19.2256 16.1283C20.2127 16.1283 14.1847 13.2607 14.1847 11.4768C9.33545 10.1724 0.739109 2.65317 0.0491016 0.48564C-0.640906 -1.69148 6.17292 4.13976 7.06418 4.43707C6.57542 3.93835 5.98125 3.05599 7.06418 3.65062C8.14711 4.24526 10.5238 5.13721 10.0255 4.73439C9.53671 4.34117 5.57875 0.178733 7.06418 1.07068C8.54961 1.96263 15.5647 6.91152 16.1589 7.10333C16.753 7.30474 15.3634 5.72225 16.6476 6.30729C17.9318 6.90192 22.8769 10.3642 25.1481 11.6494C27.4194 12.9346 31.9715 14.9103 34.3386 15.8022C36.7058 16.6942 42.3408 19.7537 48.4742 21.3362C54.598 22.9187 65.6669 24.7985 71.8003 24.2997C77.9337 23.8106 84.2684 25.7863 87.8238 22.5158C91.3793 19.2549 92.7593 16.7997 96.6789 12.7811C102.324 6.98824 115.108 10.134 113.479 17.6437V17.6629Z" fill="#F1D2DA"/>
</svg>
