<svg width="103" height="79" viewBox="0 0 103 79" fill="none" xmlns="http://www.w3.org/2000/svg">
<path d="M0.359104 0.0426396C2.01599 1.32755 18.2929 8.23499 21.4865 9.02836C24.6801 9.83035 27.2556 16.7982 27.8307 17.0137C28.4059 17.2293 29.8654 17.5398 30.7582 17.4622C31.6596 17.3932 33.0847 18.0141 34.0977 18.2814C35.1107 18.5401 34.6128 20.5753 35.643 20.6787C36.6732 20.7822 36.9393 21.1272 37.0767 22.7398C37.815 22.8174 38.8709 24.1971 39.1971 25.3527C40.2273 25.4562 40.4248 26.4393 41.1716 27.9484C41.9357 27.7069 42.6826 29.216 42.2619 30.4492C41.8413 31.691 44.1592 38.3139 45.4813 38.4432C46.8033 38.5726 49.147 30.018 47.6017 24.5938C46.0564 19.1696 56.1866 14.5905 59.8438 13.6764C63.5095 12.7623 80.4218 8.70929 83.0659 7.53649C85.71 6.36369 86.6286 6.13085 87.1523 6.82936C87.676 7.52786 86.0792 8.6403 86.062 8.79552C87.1866 7.95042 88.9809 7.81244 89.6591 8.51957C90.3373 9.2267 87.2982 11.3222 88.0623 11.0721C88.8264 10.8307 91.9341 9.54577 91.9083 11.2963C91.8912 12.2708 90.8095 12.8831 89.8565 13.2453C90.3974 13.228 90.9382 13.4005 91.1872 14.099C91.7624 15.7547 88.9895 16.755 87.9335 18.4021C88.5173 20.0579 84.9288 20.1786 85.3752 21.6618C85.8216 23.1451 81.8984 22.2741 82.7654 23.9557C83.4951 25.6287 82.216 26.4565 79.134 27.5862C80.2501 28.3364 79.7521 30.363 77.7089 31.4409C78.37 32.3033 77.4857 33.6572 74.5669 34.6402C74.5669 36.0804 73.8028 36.3218 71.8455 36.6064C71.9828 38.219 69.1498 38.2535 67.7333 39.0727C67.7333 39.0727 68.3943 41.3752 67.3985 42.3928C67.6474 42.893 67.553 43.8415 66.5915 44.5487C67.1495 44.9281 67.0551 45.8767 66.2223 46.7477C66.9263 47.1357 67.0293 49.0674 65.8875 50.0677C66.8834 50.4903 67.553 52.7928 67.553 52.7928C67.553 52.7928 70.7294 56.7855 72.9615 58.286C75.1936 59.7864 80.7651 62.1062 84.0875 63.072C87.4098 64.0465 86.8089 64.1413 85.4697 64.1672C84.1304 64.1931 80.4647 63.667 78.5588 63.3135C80.705 64.1672 101.309 69.4276 103 70.3934C95.6599 70.9367 76.0606 64.4949 77.0479 65.0813C78.0351 65.6591 90.3888 70.0916 89.1955 70.1347C84.0789 70.7383 73.6912 64.4259 75.8975 66.2455C78.2326 68.2375 85.6242 71.6955 83.8557 71.5145C77.4085 70.5486 64.3165 61.9078 64.0504 61.8216C63.7757 61.7354 64.0504 61.8216 62.8657 62.4856C61.6809 63.1496 60.2816 61.5715 59.9983 62.1407C59.715 62.7098 58.3071 67.3665 57.4915 68.2979C56.676 69.2378 56.6159 68.1513 56.1523 68.8843C55.6887 69.6173 56.1523 70.5659 56.8906 71.5921C57.6203 72.6269 57.998 74.5241 57.8006 75.9383C57.6031 77.3526 56.9507 77.1715 56.9507 77.1715C56.9507 77.1715 56.3411 77.6458 56.1179 77.6889C55.8861 77.7234 56.3068 76.93 56.3068 76.93C56.3068 76.93 56.3411 75.9728 56.7275 75.533C57.1052 75.0932 56.075 72.5924 55.8089 72.4458C55.5428 72.2992 54.0661 73.7048 53.7399 74.2136C53.4137 74.7224 53.5596 76.0591 53.3965 76.5161C53.242 76.9818 52.6754 77.0421 52.3921 77.6113C52.1088 78.1804 52.8729 78.9738 52.4779 78.9997C52.083 79.0255 51.628 77.4733 51.6452 77.3008C51.6624 77.1197 51.5336 76.7489 51.671 75.9211C51.8083 75.0932 52.4951 74.3861 52.4951 74.3861L51.2074 74.9811C51.2074 74.9811 50.9155 75.076 50.6322 75.1018C50.3489 75.1277 50.8125 74.4551 51.2846 73.61C51.7568 72.7562 53.8258 71.5834 54.4868 69.9795C55.1478 68.3669 54.5984 66.6335 53.9202 66.1506C53.242 65.6591 51.774 62.5201 51.3362 61.813C50.9069 61.1059 51.4392 64.7019 51.4048 65.6505C51.3705 66.6077 49.3101 68.1944 49.1041 69.1947C48.8895 70.1951 49.8939 70.1692 50.4519 70.2295C51.0013 70.2813 51.2074 71.0833 51.3619 71.2212C51.5164 71.3592 51.8856 71.5748 51.774 72.1009C51.6624 72.6269 51.0529 71.549 50.761 71.6438C50.4691 71.7387 49.5247 71.1609 49.3015 71.1954C49.0697 71.2299 48.6147 72.5062 48.5718 72.9201C48.5289 73.334 48.6147 74.7224 48.4688 75.0673C48.3229 75.4123 48.1683 75.8176 48.0396 75.9814C47.9108 76.1539 48.0224 76.6972 48.4087 77.275C48.795 77.8527 47.3785 76.93 47.1982 76.5592C47.0094 76.1798 46.9064 75.5675 46.8291 75.74C46.7518 75.9125 46.5114 76.6713 46.1681 76.7489C45.8247 76.8352 45.5843 77.5337 45.6959 78.1373C45.8075 78.7496 46.0564 79.0083 45.5156 78.7841C44.9833 78.5513 44.8803 77.2836 44.8031 76.3781C44.7258 75.4726 45.2924 74.5758 46.0135 73.1098C46.7347 71.6438 47.8078 68.0564 48.4774 67.0388C49.1556 66.0299 46.1251 61.8733 45.2666 61.7871C44.4167 61.7009 39.0855 59.0103 38.2184 57.6909C37.3428 56.3715 35.5314 55.88 32.252 55.7075C28.9725 55.535 27.5989 56.3198 26.5087 54.3623C26.0107 55.0866 24.5084 55.7075 24.5084 55.7075C24.5084 55.7075 24.8604 56.5095 23.9761 56.7337C21.5895 56.1818 20.3361 54.3623 20.5164 52.5341C18.353 51.2405 17.6233 47.0064 20.5765 43.2896C23.5211 39.5815 28.2686 40.9785 29.2043 40.1507C30.0199 39.4349 30.8354 35.494 31.0844 33.9504C31.1273 33.7089 31.1531 33.5192 31.1617 33.4157C31.1617 33.4157 31.8399 31.9583 30.0199 30.8114C27.5904 29.7679 21.7355 25.827 20.319 22.1706C18.8939 18.5142 14.9448 13.3229 12.7728 12.7882C10.5923 12.2536 10.9443 10.2098 10.9443 10.2098C10.9443 10.2098 9.91408 10.1063 7.44163 9.53715C4.96919 8.96799 6.61749 7.38126 6.17107 7.33815C5.73324 7.29503 3.69862 6.76899 2.78004 5.5617C1.86146 4.3544 3.77589 4.54412 4.49702 4.77696C5.21815 5.00979 4.26523 4.11295 2.41089 3.29371C0.565141 2.45723 -0.636743 -0.379913 0.359104 0.0426396Z" fill="#F1D2DA"/>
</svg>
